<svg xmlns="http://www.w3.org/2000/svg" viewBox="0 0 3200 3200">
<circle cx="1600" cy="1600" r="1600" fill="#f5efe6"/>
<g transform="translate(224, 1000)">
<g transform="translate(0.000000,1200.000000) scale(0.100000,-0.100000)"
fill="#000000" stroke="none">
<path d="M5519 11917 c-127 -82 -322 -169 -489 -218 -41 -12 -93 -27 -115 -35
-22 -7 -64 -18 -92 -25 -33 -7 -53 -16 -53 -25 0 -17 35 -40 75 -49 30 -7 96
-47 125 -75 34 -34 61 -82 83 -147 l22 -68 0 -3000 0 -3000 -23 -94 c-28 -116
-71 -200 -129 -251 -45 -39 -128 -84 -175 -94 -65 -14 -16 -24 155 -30 209 -8
981 -7 1045 1 48 6 55 20 15 28 -16 4 -58 18 -95 32 -131 50 -207 173 -228
368 -6 56 -10 1342 -10 3397 0 3260 0 3307 -19 3318 -25 13 -16 16 -92 -33z"/>
<path d="M132 11599 c-31 -12 -21 -24 30 -38 49 -12 128 -76 163 -132 34 -52
61 -140 74 -232 14 -99 15 -5772 1 -5923 -10 -108 -36 -202 -76 -270 -28 -48
-107 -124 -128 -124 -8 0 -29 -12 -46 -26 -23 -20 -28 -30 -20 -38 13 -13
1203 -16 1216 -3 10 10 -14 27 -39 27 -27 0 -140 55 -177 86 -67 57 -114 161
-131 294 -16 120 -16 3207 -1 3222 27 27 1491 17 1592 -11 19 -5 60 -17 91
-25 194 -54 367 -232 399 -408 16 -85 25 -101 39 -65 14 37 15 1055 1 1092
-14 38 -28 23 -36 -42 -9 -78 -71 -196 -137 -264 -82 -85 -170 -128 -362 -176
-63 -15 -147 -18 -821 -21 -651 -3 -752 -1 -763 12 -9 11 -13 349 -14 1504 -2
1271 0 1491 12 1506 13 16 83 17 1040 13 l1026 -4 110 -26 c139 -32 211 -53
252 -72 17 -8 35 -15 40 -15 15 0 182 -88 250 -133 75 -49 216 -184 273 -262
59 -81 102 -172 137 -290 13 -45 39 -44 48 2 4 21 7 215 7 431 0 294 -3 396
-12 407 -11 13 -265 15 -2014 14 -1206 0 -2010 -4 -2024 -10z"/>
<path d="M8605 9045 c-77 -7 -160 -17 -185 -24 -25 -6 -85 -21 -135 -32 -290
-67 -515 -176 -840 -405 -42 -30 -134 -110 -241 -209 -22 -21 -145 -165 -180
-212 -105 -142 -186 -278 -245 -418 -17 -38 -34 -79 -39 -90 -27 -59 -77 -221
-95 -305 -31 -145 -38 -191 -45 -315 -8 -137 3 -426 18 -466 5 -13 12 -46 16
-74 15 -115 98 -380 150 -480 9 -17 16 -33 16 -36 0 -8 92 -169 133 -234 195
-307 523 -591 892 -773 168 -83 343 -140 545 -178 194 -36 221 -38 525 -38
299 0 315 1 440 28 176 37 338 84 422 122 17 8 34 14 38 14 12 0 176 81 250
123 345 196 641 487 827 812 97 171 185 396 227 585 42 191 53 268 58 415 10
318 -52 637 -176 900 -11 22 -32 67 -47 100 -115 246 -372 560 -588 719 -183
134 -407 266 -531 313 -189 72 -216 80 -365 114 -257 58 -522 72 -845 44z
m470 -74 c123 -28 192 -52 310 -107 183 -86 365 -217 536 -386 93 -93 246
-299 331 -448 76 -132 166 -340 206 -475 93 -316 118 -504 108 -828 -13 -446
-109 -793 -314 -1138 -64 -108 -72 -119 -161 -232 -90 -116 -261 -274 -346
-321 -16 -9 -43 -25 -60 -36 -26 -17 -139 -73 -200 -100 -117 -52 -289 -82
-495 -87 -212 -5 -314 13 -558 102 -78 28 -186 89 -311 174 -13 9 -34 23 -47
31 -84 57 -301 267 -376 365 -94 123 -177 257 -242 392 -37 76 -73 149 -80
163 -21 39 -92 256 -114 350 -45 188 -53 231 -68 390 -31 315 -5 662 66 895
10 33 30 101 45 150 30 99 172 396 235 490 22 33 48 72 58 88 37 54 175 198
247 257 197 161 385 253 630 309 50 11 99 22 110 25 11 3 106 3 210 1 146 -2
211 -8 280 -24z"/>
<path d="M20660 9044 c-69 -7 -143 -19 -165 -28 -22 -8 -56 -15 -75 -16 -20 0
-61 -9 -93 -20 -31 -11 -64 -20 -74 -20 -10 0 -40 -9 -68 -20 -27 -10 -79 -30
-115 -44 -96 -37 -291 -138 -389 -203 -256 -170 -439 -350 -646 -638 -76 -107
-214 -393 -254 -530 -11 -38 -27 -92 -35 -120 -14 -47 -32 -141 -58 -295 -25
-150 8 -552 57 -696 8 -25 15 -52 15 -62 0 -9 20 -73 44 -142 59 -171 191
-425 275 -530 19 -23 46 -60 60 -81 74 -109 290 -314 455 -430 129 -90 268
-167 416 -229 41 -17 84 -35 95 -40 86 -39 295 -95 450 -121 125 -21 172 -23
435 -23 264 0 306 3 398 22 57 12 112 22 122 22 29 0 245 66 350 107 99 39
127 53 240 117 320 183 568 407 864 781 92 116 178 224 192 240 14 17 48 60
77 97 29 38 113 146 187 242 74 95 194 249 265 342 72 92 166 212 210 267 44
55 90 113 102 129 26 36 62 63 71 53 4 -4 6 -432 5 -953 -3 -814 -5 -955 -18
-1011 -9 -36 -18 -77 -21 -91 -9 -44 -51 -124 -88 -167 -42 -48 -143 -100
-212 -110 -48 -6 -65 -20 -43 -34 16 -10 1182 -12 1253 -3 56 8 60 21 9 29
-64 10 -157 61 -202 111 -24 25 -56 75 -73 111 -59 131 -59 122 -60 1541 l0
1292 27 42 c15 23 37 51 49 62 12 12 50 56 85 98 76 94 304 299 398 361 85 56
222 127 288 151 173 62 390 79 550 43 152 -34 375 -163 480 -277 17 -18 48
-45 69 -61 34 -25 48 -29 108 -29 132 0 228 77 263 214 20 77 19 125 -6 208
-19 60 -31 80 -83 133 -67 68 -133 106 -241 139 -61 18 -94 21 -265 21 -206
-1 -259 -8 -435 -61 -251 -76 -541 -241 -795 -452 -119 -99 -173 -147 -209
-182 -39 -39 -207 -221 -225 -244 -6 -8 -20 -16 -31 -18 -19 -3 -21 5 -28 117
-4 66 -5 149 -2 184 3 35 3 190 -1 344 -8 304 -9 310 -62 269 -63 -50 -202
-140 -272 -176 -172 -89 -456 -204 -544 -220 -55 -10 -39 -29 35 -42 167 -28
231 -81 279 -234 24 -75 24 -76 21 -509 l-3 -435 -26 -37 c-40 -55 -193 -254
-323 -420 -63 -80 -152 -196 -199 -258 -47 -62 -138 -181 -204 -264 -65 -84
-127 -163 -138 -177 -41 -55 -232 -295 -238 -300 -3 -3 -31 -36 -62 -75 -128
-161 -291 -316 -488 -463 -34 -26 -204 -123 -260 -149 -172 -80 -347 -137
-520 -170 -135 -26 -535 -26 -665 0 -489 96 -898 336 -1198 703 -196 240 -347
538 -418 825 -11 42 -10 49 15 91 67 114 192 221 361 306 118 60 145 70 310
112 137 35 352 90 545 141 41 11 102 26 135 34 33 7 96 23 140 35 44 12 121
32 170 45 95 25 204 54 320 86 39 11 95 26 125 33 83 21 211 55 245 66 16 5
73 21 125 35 144 39 241 66 285 80 43 14 171 50 300 85 265 72 393 130 482
218 61 61 54 91 -56 252 -117 171 -225 281 -414 423 -139 104 -265 177 -444
257 -161 71 -244 100 -368 128 -49 12 -121 28 -160 37 -189 43 -525 56 -785
29z m366 -55 c93 -13 289 -63 358 -91 38 -16 234 -114 261 -131 88 -54 258
-193 341 -278 110 -114 181 -213 250 -347 71 -139 62 -202 -45 -315 -113 -121
-276 -196 -621 -287 -47 -12 -103 -28 -125 -35 -22 -7 -87 -25 -145 -40 -58
-15 -127 -33 -155 -41 -27 -7 -77 -20 -110 -28 -84 -22 -302 -80 -415 -111
-52 -15 -122 -32 -155 -39 -33 -8 -89 -21 -125 -31 -127 -33 -176 -45 -285
-70 -60 -14 -130 -32 -155 -39 -122 -37 -548 -126 -599 -126 -7 0 -21 19 -31
43 -28 61 -26 226 5 452 26 187 35 232 79 375 44 147 59 184 143 355 61 126
83 159 186 288 96 120 236 238 385 324 59 34 113 62 120 63 6 0 29 9 49 20 21
11 47 20 58 20 11 1 38 9 60 20 22 11 54 20 70 20 17 0 48 5 70 11 22 6 58 14
80 19 61 12 364 11 451 -1z"/>
<path d="M11487 8984 c-7 -8 51 -48 96 -68 103 -44 182 -140 281 -343 25 -50
104 -212 177 -360 72 -147 177 -362 234 -478 214 -438 295 -604 348 -715 30
-63 113 -234 184 -380 72 -146 156 -319 188 -385 31 -66 118 -244 192 -395
167 -341 207 -424 375 -780 116 -245 125 -259 147 -245 6 3 46 79 89 168 44
89 125 255 181 369 55 114 101 211 101 214 0 4 36 82 81 173 168 345 238 489
284 586 76 161 147 308 238 495 47 96 108 225 137 285 192 406 257 525 286
525 3 0 21 -35 41 -77 19 -43 57 -124 84 -181 27 -56 49 -105 49 -108 0 -10
22 -58 180 -389 34 -71 70 -148 80 -170 55 -119 85 -186 107 -235 14 -30 72
-150 129 -267 57 -116 104 -214 104 -217 0 -5 46 -104 143 -307 25 -52 54
-114 65 -139 24 -55 74 -162 137 -295 26 -55 60 -131 76 -170 15 -38 34 -83
42 -100 8 -16 27 -58 43 -92 43 -93 64 -94 106 -5 56 119 121 258 138 297 35
79 73 162 127 275 30 63 61 129 68 145 7 17 33 73 58 125 25 52 64 136 87 185
23 50 66 140 95 200 29 61 68 142 85 180 64 139 93 202 156 331 35 72 79 164
97 205 19 41 65 137 102 214 37 77 76 160 87 185 12 25 51 108 88 185 62 128
101 210 210 440 76 160 133 281 160 340 187 400 219 455 335 570 75 75 106 98
185 137 52 25 103 49 113 52 9 3 17 10 17 16 0 12 -866 15 -873 2 -3 -4 31
-23 75 -42 145 -63 210 -156 212 -305 2 -145 -8 -170 -379 -940 -34 -71 -75
-157 -90 -190 -15 -33 -67 -141 -115 -240 -48 -99 -97 -202 -110 -230 -12 -27
-48 -104 -80 -170 -72 -148 -140 -295 -140 -301 0 -2 -24 -55 -54 -117 -29
-62 -68 -146 -86 -187 -17 -41 -58 -129 -89 -195 -56 -115 -80 -166 -123 -265
-11 -25 -38 -82 -59 -127 -22 -44 -39 -84 -39 -87 0 -14 -51 -86 -58 -82 -10
6 -33 53 -91 186 -27 63 -64 142 -81 175 -17 33 -54 112 -82 175 -28 63 -71
158 -95 210 -51 109 -87 187 -113 245 -28 63 -120 260 -221 473 -27 56 -49
105 -49 107 0 2 -25 57 -56 122 -30 65 -64 136 -74 158 -10 22 -48 102 -84
179 -36 76 -66 141 -66 145 0 4 -18 44 -40 89 -22 44 -40 87 -40 95 0 7 -4 17
-9 23 -5 5 -55 113 -111 239 -56 127 -113 253 -126 281 -46 98 -66 169 -71
256 -6 98 8 154 54 208 25 31 156 100 187 100 10 0 14 5 11 10 -7 12 -1231 14
-1239 2 -2 -4 14 -17 37 -29 23 -11 71 -35 106 -52 108 -54 184 -149 272 -338
78 -168 78 -169 209 -468 50 -115 99 -226 107 -245 31 -67 28 -109 -11 -180
-20 -36 -55 -103 -77 -150 -22 -47 -71 -148 -109 -225 -135 -279 -189 -391
-199 -415 -6 -14 -15 -32 -21 -40 -5 -8 -25 -49 -43 -90 -86 -189 -138 -297
-157 -330 -5 -8 -23 -46 -41 -85 -17 -38 -82 -173 -144 -300 -62 -126 -123
-252 -135 -280 -91 -200 -111 -235 -136 -235 -17 0 -25 7 -30 27 -4 15 -20 53
-34 83 -15 30 -76 154 -135 275 -59 121 -149 306 -200 410 -51 105 -124 255
-163 335 -153 316 -259 535 -363 747 -60 121 -109 224 -109 228 0 4 -49 107
-109 229 -60 122 -125 255 -144 296 -19 41 -54 116 -77 165 -128 271 -142 309
-142 394 0 76 32 156 74 186 61 42 101 65 124 71 19 5 22 9 12 15 -15 10
-1161 12 -1171 3z"/>
<path d="M12450 6314 c-119 -42 -197 -101 -380 -284 -191 -190 -500 -591 -715
-925 -32 -49 -79 -121 -104 -160 -54 -82 -59 -90 -89 -141 -13 -22 -43 -70
-67 -109 -24 -38 -61 -99 -82 -133 -21 -35 -45 -75 -53 -88 -21 -33 -183 -300
-195 -322 -38 -66 -131 -194 -147 -203 -12 -6 -89 -29 -172 -50 -188 -48 -307
-83 -466 -137 -47 -16 -132 -44 -190 -63 -58 -18 -116 -39 -130 -46 -14 -7
-30 -13 -37 -13 -7 0 -27 -7 -45 -15 -18 -8 -67 -28 -108 -45 -41 -17 -84 -35
-95 -40 -11 -5 -54 -23 -95 -40 -138 -57 -517 -250 -560 -285 -25 -20 -59 -24
-75 -8 -8 8 -34 46 -57 84 -24 39 -56 91 -71 116 -55 90 -55 231 1 335 37 71
121 159 195 206 85 54 198 102 240 102 30 0 36 -4 49 -38 21 -53 51 -60 89
-22 40 40 40 97 0 142 -24 27 -36 32 -88 36 -151 11 -394 -120 -526 -283 -76
-94 -117 -187 -124 -278 l-6 -77 -36 -9 c-20 -5 -90 -16 -156 -26 -174 -24
-518 -85 -660 -117 -195 -43 -273 -61 -340 -79 -38 -11 -77 -19 -86 -19 -8 0
-71 -18 -140 -40 -68 -22 -153 -49 -189 -60 -242 -74 -337 -109 -650 -237
-112 -45 -467 -223 -552 -276 -122 -76 -153 -121 -110 -160 29 -27 64 -20 123
24 155 117 424 253 749 379 173 67 184 71 315 114 367 122 639 190 1180 296
165 32 532 89 576 90 10 0 28 -21 44 -52 15 -29 33 -60 40 -68 25 -30 85 -148
85 -167 0 -12 -25 -39 -67 -73 -419 -331 -651 -643 -653 -876 -1 -99 49 -187
127 -225 40 -20 63 -24 133 -23 72 0 96 5 158 31 123 52 183 94 287 198 140
140 195 225 248 385 18 53 22 88 21 190 0 130 -14 201 -56 284 -15 30 -18 44
-10 61 20 43 405 251 677 365 55 23 114 48 130 56 33 16 270 99 485 170 74 24
182 56 240 70 256 61 260 62 260 41 0 -8 -43 -85 -96 -173 -52 -87 -112 -188
-132 -222 -20 -35 -44 -76 -53 -90 -9 -15 -25 -43 -36 -62 -12 -19 -51 -87
-88 -150 -103 -175 -145 -258 -145 -283 0 -28 38 -67 66 -67 19 0 59 22 79 44
10 11 161 154 275 261 134 125 277 252 320 285 24 19 72 59 105 89 33 29 112
92 175 140 340 257 563 372 640 331 52 -28 57 -97 23 -275 -10 -49 -16 -140
-17 -235 -1 -144 1 -158 22 -200 40 -76 88 -118 163 -140 36 -11 88 -20 114
-20 44 0 162 19 245 40 88 21 333 104 385 130 11 5 58 25 105 44 142 57 199
81 276 117 22 10 43 19 46 19 4 0 90 41 193 91 121 59 190 88 196 82 7 -7 -2
-36 -24 -84 -78 -166 -97 -296 -56 -374 27 -52 51 -72 109 -89 103 -31 229 32
447 221 62 54 190 211 258 317 19 30 49 88 65 128 36 90 51 102 105 84 65 -23
231 -41 370 -41 137 0 300 14 525 45 74 11 164 22 200 25 36 3 78 11 93 17 20
8 31 8 39 0 12 -12 6 -29 -24 -77 -7 -10 -56 -86 -108 -167 -52 -81 -108 -169
-124 -195 -16 -27 -53 -84 -81 -128 -28 -44 -69 -107 -90 -140 -21 -33 -44
-69 -51 -80 -50 -73 -155 -235 -189 -291 -34 -56 -79 -127 -132 -210 -7 -10
-20 -32 -29 -49 -9 -16 -40 -66 -69 -110 -83 -128 -98 -154 -135 -220 -5 -11
-24 -40 -40 -65 -16 -25 -46 -73 -67 -108 -21 -35 -43 -71 -48 -80 -6 -9 -37
-62 -69 -117 -32 -55 -73 -122 -91 -150 -18 -27 -40 -66 -49 -85 -9 -19 -26
-51 -38 -71 -36 -57 -318 -549 -318 -555 0 -2 -20 -39 -43 -82 -147 -261 -357
-681 -357 -713 0 -32 32 -59 70 -59 46 0 83 33 123 111 21 41 64 119 97 174
32 55 82 141 111 190 29 50 67 110 84 135 17 25 34 52 38 60 4 8 18 33 32 55
13 22 34 56 45 75 11 19 28 47 38 62 9 14 32 52 51 84 18 31 58 96 88 143 56
88 85 132 127 199 13 20 48 75 78 122 30 47 72 112 93 145 77 123 89 141 125
195 43 64 95 141 173 260 31 47 72 108 92 135 20 28 43 61 52 75 10 14 56 77
102 140 47 63 117 158 155 210 61 83 270 346 286 360 3 3 32 37 64 75 243 289
520 554 791 756 127 94 157 114 285 187 217 123 315 161 442 169 69 5 82 2
115 -18 71 -44 113 -120 113 -203 0 -48 -27 -154 -65 -255 -49 -132 -161 -313
-314 -506 -67 -85 -82 -94 -196 -120 -33 -7 -96 -23 -140 -35 -44 -12 -120
-32 -170 -45 -268 -71 -504 -180 -595 -274 -56 -58 -74 -95 -78 -157 -11 -165
148 -244 374 -185 45 11 94 27 110 36 16 8 32 15 35 15 8 0 123 68 184 108
103 69 225 174 354 308 158 164 154 162 338 183 51 6 103 15 116 20 13 5 54
12 92 16 73 6 282 35 445 60 52 9 142 20 200 25 57 6 152 16 210 24 174 24
358 46 480 56 63 5 144 14 180 20 36 5 130 14 210 20 80 6 163 15 185 20 22 5
110 14 195 20 85 6 247 17 360 25 191 13 321 20 805 45 362 19 1182 9 1300
-15 67 -14 105 82 48 121 -27 18 -61 19 -723 19 -704 0 -720 -1 -1350 -46
-385 -27 -717 -56 -970 -84 -74 -8 -193 -20 -265 -26 -71 -5 -148 -14 -170
-19 -22 -4 -74 -11 -115 -14 -70 -6 -251 -27 -520 -62 -352 -45 -505 -66 -630
-89 -144 -25 -164 -18 -121 43 10 15 36 54 56 87 21 33 45 71 55 85 22 34 123
241 150 310 24 64 50 203 50 275 0 151 -81 270 -214 315 -72 24 -120 25 -217
4 -95 -21 -177 -52 -314 -120 -179 -88 -281 -157 -548 -370 -154 -123 -506
-461 -608 -585 -30 -36 -95 -113 -144 -170 -74 -85 -151 -181 -197 -244 -35
-47 -138 -173 -151 -184 -15 -11 -17 -11 -17 2 0 9 5 19 10 22 6 4 17 21 25
38 8 18 33 59 55 92 21 33 55 87 75 120 20 33 49 80 65 105 16 25 50 81 76
125 26 44 76 125 112 180 36 55 81 125 100 155 49 76 210 323 258 394 74 110
114 171 142 215 23 37 62 92 90 126 39 49 144 220 148 244 12 58 -35 96 -90
75 -14 -6 -74 -90 -174 -249 -27 -43 -33 -52 -113 -169 -73 -106 -86 -116
-181 -137 -335 -75 -857 -127 -1009 -101 -35 6 -106 17 -157 23 -53 7 -100 18
-108 26 -9 9 -14 35 -14 70 0 69 -28 122 -83 160 -35 24 -50 28 -113 28 -82 0
-110 -14 -154 -78 -14 -20 -59 -59 -101 -86 -41 -27 -113 -85 -160 -128 -62
-58 -108 -90 -169 -120 -47 -23 -156 -75 -242 -117 -87 -42 -160 -76 -162 -76
-5 0 -77 -33 -245 -112 -94 -44 -235 -103 -296 -124 -22 -7 -71 -25 -110 -39
-173 -64 -375 -115 -459 -115 -78 0 -142 30 -171 80 -18 31 -20 51 -18 170 0
74 8 179 17 232 20 122 20 178 1 253 -41 163 -201 184 -430 59 -27 -15 -59
-32 -70 -38 -134 -73 -535 -371 -675 -502 -25 -23 -76 -68 -115 -100 -38 -32
-74 -64 -80 -70 -21 -23 -106 -87 -110 -82 -7 6 49 107 136 248 5 8 31 51 58
95 28 44 67 109 87 145 20 36 60 101 89 145 29 44 82 132 120 195 49 84 80
125 113 150 53 40 598 580 691 685 35 39 113 122 175 185 480 492 808 930 847
1127 21 112 -22 196 -106 207 -22 3 -47 3 -55 0z m44 -170 c-1 -65 -58 -174
-182 -350 -53 -74 -275 -347 -361 -444 -109 -121 -177 -193 -442 -464 -119
-122 -238 -245 -264 -273 -44 -49 -75 -67 -75 -44 0 6 13 29 28 53 33 49 51
79 122 200 77 131 282 440 380 572 14 19 43 60 65 91 45 65 162 215 180 230 6
6 39 44 73 85 142 175 402 396 457 388 16 -2 20 -10 19 -44z m1589 -2145 c12
-7 25 -17 29 -23 12 -18 9 -53 -5 -59 -18 -7 -68 16 -92 43 -19 21 -19 22 0
36 23 17 39 18 68 3z m-91 -168 c90 -47 93 -50 92 -83 -2 -76 -131 -285 -248
-402 -99 -98 -197 -176 -277 -220 -76 -42 -96 -44 -134 -14 -26 20 -27 25 -22
83 3 34 12 77 20 96 8 19 20 45 26 59 66 154 224 363 354 468 43 34 82 62 87
62 4 0 50 -22 102 -49z m-5361 -851 c50 -97 64 -188 50 -312 -22 -191 -169
-405 -371 -542 -86 -58 -146 -84 -213 -92 -199 -23 -220 161 -49 426 97 150
350 405 507 512 43 30 63 32 76 8z m8004 -70 c6 -10 -78 -98 -189 -198 -158
-141 -379 -256 -517 -269 -74 -6 -116 9 -138 50 -11 21 -11 30 4 61 31 64 116
126 260 187 39 17 79 34 90 39 57 27 214 76 321 100 44 11 91 24 105 29 32 13
56 13 64 1z"/>
<path d="M26409 5212 c-38 -24 -63 -57 -184 -237 -60 -88 -129 -190 -154 -226
-25 -37 -79 -116 -120 -175 -41 -60 -83 -121 -95 -135 -12 -15 -37 -53 -56
-85 -19 -31 -75 -119 -125 -195 -49 -76 -112 -175 -140 -220 -27 -44 -69 -110
-92 -146 -24 -35 -43 -66 -43 -69 0 -2 -35 -58 -77 -124 -43 -66 -89 -138
-102 -159 -23 -37 -38 -47 -201 -126 -19 -9 -96 -44 -170 -77 -74 -33 -160
-71 -190 -85 -91 -41 -132 -60 -200 -88 -36 -15 -83 -35 -105 -45 -79 -35
-253 -90 -283 -90 -30 0 -70 44 -78 85 -3 20 -1 92 6 160 15 143 8 204 -25
243 -37 44 -86 55 -154 33 -31 -10 -76 -30 -101 -45 -25 -14 -56 -31 -70 -38
-49 -24 -298 -203 -325 -233 -19 -22 -64 -45 -69 -36 -3 5 15 55 40 112 81
180 101 280 72 344 -15 32 -56 55 -100 55 -36 0 -118 -35 -169 -72 -148 -106
-390 -295 -484 -378 -127 -112 -125 -111 -125 -84 0 16 39 76 155 239 136 190
148 212 128 244 -26 42 -78 19 -128 -57 -14 -20 -35 -51 -47 -68 -36 -49 -127
-177 -138 -194 -99 -146 -160 -241 -205 -315 -20 -33 -47 -78 -61 -100 -49
-80 -56 -121 -26 -148 34 -31 60 -20 140 56 112 107 130 124 202 186 36 30
119 103 185 161 263 232 488 400 535 400 51 0 32 -83 -65 -285 -114 -238 -125
-262 -125 -287 0 -29 9 -42 38 -57 31 -16 53 -3 235 141 201 160 368 277 471
332 98 52 127 25 108 -102 -7 -42 -12 -113 -12 -158 0 -98 25 -154 87 -198 38
-26 49 -29 120 -28 62 1 98 8 164 32 46 17 98 36 114 41 28 10 180 73 250 104
331 147 427 187 436 178 6 -6 -1 -24 -21 -51 -17 -24 -40 -66 -51 -95 -11 -28
-35 -74 -53 -102 -19 -27 -42 -65 -52 -84 -11 -18 -24 -41 -29 -50 -6 -9 -39
-63 -73 -121 -35 -58 -77 -125 -93 -150 -16 -25 -32 -52 -36 -60 -4 -8 -26
-46 -50 -84 -60 -97 -57 -156 7 -156 15 0 35 10 46 23 17 18 77 115 120 192
34 62 60 106 98 164 23 36 57 91 76 121 91 148 128 198 198 272 43 44 105 102
139 130 89 70 97 68 203 -62 178 -218 243 -261 430 -285 176 -22 411 6 700 83
99 27 400 128 437 147 15 8 32 15 37 15 5 0 28 9 52 20 24 11 63 29 87 39 46
21 249 120 279 136 14 7 18 19 16 45 -3 29 -8 36 -34 43 -26 7 -42 4 -95 -23
-35 -17 -71 -35 -79 -40 -8 -5 -49 -23 -90 -40 -41 -17 -84 -35 -95 -40 -53
-23 -146 -60 -200 -80 -33 -13 -81 -31 -107 -41 -26 -11 -53 -19 -60 -19 -7
-1 -31 -9 -53 -20 -22 -11 -46 -19 -53 -20 -8 0 -44 -9 -80 -19 -71 -21 -198
-49 -347 -77 -53 -10 -140 -17 -210 -17 -183 -1 -255 33 -384 178 -34 38 -60
76 -59 85 3 15 10 19 118 69 145 68 241 141 287 221 22 37 27 58 27 118 1 68
-1 73 -29 97 -47 38 -82 33 -224 -38 -143 -71 -213 -115 -323 -204 -42 -34
-87 -67 -99 -73 -20 -11 -21 -10 -15 14 4 15 22 48 40 74 19 26 50 70 70 97
20 28 66 95 102 150 110 164 131 196 201 295 36 52 112 163 168 245 56 83 133
195 170 250 169 245 403 602 429 652 21 42 20 76 -2 96 -24 22 -50 21 -83 -1z
m-519 -1682 c0 -28 -23 -70 -52 -96 -39 -35 -221 -133 -295 -158 -44 -15 -53
-13 -53 14 0 21 48 60 230 184 107 74 170 95 170 56z"/>
<path d="M21467 2892 c-31 -19 -42 -49 -33 -86 10 -39 34 -56 79 -56 63 0 87
21 87 76 0 39 -4 47 -32 64 -40 24 -64 25 -101 2z"/>
</g>
</g>
</svg>
